<svg id="visual" viewBox="0 0 1440 320" width="1440" height="320" xmlns="http://www.w3.org/2000/svg" xmlns:xlink="http://www.w3.org/1999/xlink" version="1.1"><path d="M0 107L13.3 111C26.7 115 53.3 123 80 130.2C106.7 137.3 133.3 143.7 160 139.3C186.7 135 213.3 120 240 112.5C266.7 105 293.3 105 320 113.8C346.7 122.7 373.3 140.3 400 147.8C426.7 155.3 453.3 152.7 480 146.8C506.7 141 533.3 132 560 125.3C586.7 118.7 613.3 114.3 640 116C666.7 117.7 693.3 125.3 720 123.2C746.7 121 773.3 109 800 110.7C826.7 112.3 853.3 127.7 880 129.7C906.7 131.7 933.3 120.3 960 116C986.7 111.7 1013.3 114.3 1040 109C1066.7 103.7 1093.3 90.3 1120 85.8C1146.7 81.3 1173.3 85.7 1200 91C1226.7 96.3 1253.3 102.7 1280 105.7C1306.7 108.7 1333.3 108.3 1360 108.2C1386.7 108 1413.3 108 1426.7 108L1440 108L1440 321L1426.7 321C1413.3 321 1386.7 321 1360 321C1333.3 321 1306.7 321 1280 321C1253.3 321 1226.7 321 1200 321C1173.3 321 1146.7 321 1120 321C1093.3 321 1066.7 321 1040 321C1013.3 321 986.7 321 960 321C933.3 321 906.7 321 880 321C853.3 321 826.7 321 800 321C773.3 321 746.7 321 720 321C693.3 321 666.7 321 640 321C613.3 321 586.7 321 560 321C533.3 321 506.7 321 480 321C453.3 321 426.7 321 400 321C373.3 321 346.7 321 320 321C293.3 321 266.7 321 240 321C213.3 321 186.7 321 160 321C133.3 321 106.7 321 80 321C53.3 321 26.7 321 13.3 321L0 321Z" fill="#f3f9ff"></path><path d="M0 171L13.3 168.5C26.7 166 53.3 161 80 163.3C106.7 165.7 133.3 175.3 160 178.8C186.7 182.3 213.3 179.7 240 178.5C266.7 177.3 293.3 177.7 320 177C346.7 176.3 373.3 174.7 400 172.5C426.7 170.3 453.3 167.7 480 169.3C506.7 171 533.3 177 560 176C586.7 175 613.3 167 640 157.7C666.7 148.3 693.3 137.7 720 133.7C746.7 129.7 773.3 132.3 800 139.2C826.7 146 853.3 157 880 163.8C906.7 170.7 933.3 173.3 960 169.7C986.7 166 1013.3 156 1040 160.2C1066.7 164.3 1093.3 182.7 1120 186.5C1146.7 190.3 1173.3 179.7 1200 171.2C1226.7 162.7 1253.3 156.3 1280 158.5C1306.7 160.7 1333.3 171.3 1360 169.5C1386.7 167.7 1413.3 153.3 1426.7 146.2L1440 139L1440 321L1426.7 321C1413.3 321 1386.7 321 1360 321C1333.3 321 1306.7 321 1280 321C1253.3 321 1226.7 321 1200 321C1173.3 321 1146.7 321 1120 321C1093.3 321 1066.7 321 1040 321C1013.3 321 986.7 321 960 321C933.3 321 906.7 321 880 321C853.3 321 826.7 321 800 321C773.3 321 746.7 321 720 321C693.3 321 666.7 321 640 321C613.3 321 586.7 321 560 321C533.3 321 506.7 321 480 321C453.3 321 426.7 321 400 321C373.3 321 346.7 321 320 321C293.3 321 266.7 321 240 321C213.3 321 186.7 321 160 321C133.3 321 106.7 321 80 321C53.3 321 26.7 321 13.3 321L0 321Z" fill="#eff7ff"></path><path d="M0 206L13.3 208.2C26.7 210.3 53.3 214.7 80 215.5C106.7 216.3 133.3 213.7 160 212.2C186.7 210.7 213.3 210.3 240 211.5C266.7 212.7 293.3 215.3 320 213.5C346.7 211.7 373.3 205.3 400 205.5C426.7 205.7 453.3 212.3 480 217C506.7 221.7 533.3 224.3 560 226.3C586.7 228.3 613.3 229.7 640 224.2C666.7 218.7 693.3 206.3 720 200.5C746.7 194.7 773.3 195.3 800 200.7C826.7 206 853.3 216 880 215.8C906.7 215.7 933.3 205.3 960 207.2C986.7 209 1013.3 223 1040 218.5C1066.7 214 1093.3 191 1120 187.3C1146.7 183.7 1173.3 199.3 1200 207.3C1226.7 215.3 1253.3 215.7 1280 219.7C1306.7 223.7 1333.3 231.3 1360 232.8C1386.7 234.3 1413.3 229.7 1426.7 227.3L1440 225L1440 321L1426.7 321C1413.3 321 1386.7 321 1360 321C1333.3 321 1306.7 321 1280 321C1253.3 321 1226.7 321 1200 321C1173.3 321 1146.7 321 1120 321C1093.3 321 1066.7 321 1040 321C1013.3 321 986.7 321 960 321C933.3 321 906.7 321 880 321C853.3 321 826.7 321 800 321C773.3 321 746.7 321 720 321C693.3 321 666.7 321 640 321C613.3 321 586.7 321 560 321C533.3 321 506.7 321 480 321C453.3 321 426.7 321 400 321C373.3 321 346.7 321 320 321C293.3 321 266.7 321 240 321C213.3 321 186.7 321 160 321C133.3 321 106.7 321 80 321C53.3 321 26.7 321 13.3 321L0 321Z" fill="#e2f1ff"></path><path d="M0 251L13.3 256.8C26.7 262.7 53.3 274.3 80 279C106.7 283.7 133.3 281.3 160 276.2C186.7 271 213.3 263 240 261.7C266.7 260.3 293.3 265.7 320 269.2C346.7 272.7 373.3 274.3 400 276.5C426.7 278.7 453.3 281.3 480 279C506.7 276.7 533.3 269.3 560 266.7C586.7 264 613.3 266 640 260.2C666.7 254.3 693.3 240.7 720 235.8C746.7 231 773.3 235 800 244.5C826.7 254 853.3 269 880 267.2C906.7 265.3 933.3 246.7 960 243.3C986.7 240 1013.3 252 1040 256.7C1066.7 261.3 1093.3 258.7 1120 256.5C1146.7 254.3 1173.3 252.7 1200 251.7C1226.7 250.7 1253.3 250.3 1280 251.5C1306.7 252.7 1333.3 255.3 1360 261C1386.7 266.7 1413.3 275.3 1426.7 279.7L1440 284L1440 321L1426.7 321C1413.3 321 1386.7 321 1360 321C1333.3 321 1306.7 321 1280 321C1253.3 321 1226.7 321 1200 321C1173.3 321 1146.7 321 1120 321C1093.3 321 1066.7 321 1040 321C1013.3 321 986.7 321 960 321C933.3 321 906.7 321 880 321C853.3 321 826.7 321 800 321C773.3 321 746.7 321 720 321C693.3 321 666.7 321 640 321C613.3 321 586.7 321 560 321C533.3 321 506.7 321 480 321C453.3 321 426.7 321 400 321C373.3 321 346.7 321 320 321C293.3 321 266.7 321 240 321C213.3 321 186.7 321 160 321C133.3 321 106.7 321 80 321C53.3 321 26.7 321 13.3 321L0 321Z" fill="#cde6ff"></path></svg>