<svg id="visual" viewBox="0 0 2000 200" width="2000" height="200" xmlns="http://www.w3.org/2000/svg" xmlns:xlink="http://www.w3.org/1999/xlink" version="1.1"><rect x="0" y="0" width="2000" height="200" fill="#FBFDFF"></rect><path d="M0 59L47.7 60C95.3 61 190.7 63 285.8 69C381 75 476 85 571.2 87.2C666.3 89.3 761.7 83.7 857 81C952.3 78.3 1047.7 78.7 1143 75.3C1238.3 72 1333.7 65 1428.8 61.7C1524 58.3 1619 58.7 1714.2 63.8C1809.3 69 1904.7 79 1952.3 84L2000 89L2000 201L1952.3 201C1904.7 201 1809.3 201 1714.2 201C1619 201 1524 201 1428.8 201C1333.7 201 1238.3 201 1143 201C1047.7 201 952.3 201 857 201C761.7 201 666.3 201 571.2 201C476 201 381 201 285.8 201C190.7 201 95.3 201 47.7 201L0 201Z" fill="#fcfeff"></path><path d="M0 76L47.7 82C95.3 88 190.7 100 285.8 99.5C381 99 476 86 571.2 83.2C666.3 80.3 761.7 87.7 857 88.5C952.3 89.3 1047.7 83.7 1143 80.5C1238.3 77.3 1333.7 76.7 1428.8 76.5C1524 76.3 1619 76.7 1714.2 77C1809.3 77.3 1904.7 77.7 1952.3 77.8L2000 78L2000 201L1952.3 201C1904.7 201 1809.3 201 1714.2 201C1619 201 1524 201 1428.8 201C1333.7 201 1238.3 201 1143 201C1047.7 201 952.3 201 857 201C761.7 201 666.3 201 571.2 201C476 201 381 201 285.8 201C190.7 201 95.3 201 47.7 201L0 201Z" fill="#fcfeff"></path><path d="M0 107L47.7 107.7C95.3 108.3 190.7 109.7 285.8 109.5C381 109.3 476 107.7 571.2 103.2C666.3 98.7 761.7 91.3 857 92.8C952.3 94.3 1047.7 104.7 1143 108.3C1238.3 112 1333.7 109 1428.8 109.8C1524 110.7 1619 115.3 1714.2 118.7C1809.3 122 1904.7 124 1952.3 125L2000 126L2000 201L1952.3 201C1904.7 201 1809.3 201 1714.2 201C1619 201 1524 201 1428.8 201C1333.7 201 1238.3 201 1143 201C1047.7 201 952.3 201 857 201C761.7 201 666.3 201 571.2 201C476 201 381 201 285.8 201C190.7 201 95.3 201 47.7 201L0 201Z" fill="#fbfdff"></path><path d="M0 109L47.7 113.5C95.3 118 190.7 127 285.8 131.3C381 135.7 476 135.3 571.2 137.3C666.3 139.3 761.7 143.7 857 141C952.3 138.3 1047.7 128.7 1143 128.7C1238.3 128.7 1333.7 138.3 1428.8 138C1524 137.7 1619 127.3 1714.2 120.5C1809.3 113.7 1904.7 110.3 1952.3 108.7L2000 107L2000 201L1952.3 201C1904.7 201 1809.3 201 1714.2 201C1619 201 1524 201 1428.8 201C1333.7 201 1238.3 201 1143 201C1047.7 201 952.3 201 857 201C761.7 201 666.3 201 571.2 201C476 201 381 201 285.8 201C190.7 201 95.3 201 47.7 201L0 201Z" fill="#f4faff"></path><path d="M0 131L47.7 132.2C95.3 133.3 190.7 135.7 285.8 140C381 144.3 476 150.7 571.2 155.2C666.3 159.7 761.7 162.3 857 158.3C952.3 154.3 1047.7 143.7 1143 138.5C1238.3 133.3 1333.7 133.7 1428.8 137C1524 140.3 1619 146.7 1714.2 151.7C1809.3 156.7 1904.7 160.3 1952.3 162.2L2000 164L2000 201L1952.3 201C1904.7 201 1809.3 201 1714.2 201C1619 201 1524 201 1428.8 201C1333.7 201 1238.3 201 1143 201C1047.7 201 952.3 201 857 201C761.7 201 666.3 201 571.2 201C476 201 381 201 285.8 201C190.7 201 95.3 201 47.7 201L0 201Z" fill="#e7f3ff"></path><path d="M0 158L47.7 158.7C95.3 159.3 190.7 160.7 285.8 162.5C381 164.3 476 166.7 571.2 168C666.3 169.3 761.7 169.7 857 171.3C952.3 173 1047.7 176 1143 177C1238.3 178 1333.7 177 1428.8 175C1524 173 1619 170 1714.2 171C1809.3 172 1904.7 177 1952.3 179.5L2000 182L2000 201L1952.3 201C1904.7 201 1809.3 201 1714.2 201C1619 201 1524 201 1428.8 201C1333.7 201 1238.3 201 1143 201C1047.7 201 952.3 201 857 201C761.7 201 666.3 201 571.2 201C476 201 381 201 285.8 201C190.7 201 95.3 201 47.7 201L0 201Z" fill="#daecff"></path></svg>