<svg id="visual" viewBox="0 0 2000 300" width="2000" height="300" xmlns="http://www.w3.org/2000/svg" xmlns:xlink="http://www.w3.org/1999/xlink" version="1.1"><path d="M0 195L47.7 194.7C95.3 194.3 190.7 193.7 285.8 191.3C381 189 476 185 571.2 188.7C666.3 192.3 761.7 203.7 857 206.3C952.3 209 1047.7 203 1143 200.5C1238.3 198 1333.7 199 1428.8 200C1524 201 1619 202 1714.2 201.8C1809.3 201.7 1904.7 200.3 1952.3 199.7L2000 199L2000 301L1952.3 301C1904.7 301 1809.3 301 1714.2 301C1619 301 1524 301 1428.8 301C1333.7 301 1238.3 301 1143 301C1047.7 301 952.3 301 857 301C761.7 301 666.3 301 571.2 301C476 301 381 301 285.8 301C190.7 301 95.3 301 47.7 301L0 301Z" fill="#fbfdff"></path><path d="M0 215L47.7 218.5C95.3 222 190.7 229 285.8 231.2C381 233.3 476 230.7 571.2 225.2C666.3 219.7 761.7 211.3 857 207C952.3 202.7 1047.7 202.3 1143 201.5C1238.3 200.7 1333.7 199.3 1428.8 204.7C1524 210 1619 222 1714.2 226.2C1809.3 230.3 1904.7 226.7 1952.3 224.8L2000 223L2000 301L1952.3 301C1904.7 301 1809.3 301 1714.2 301C1619 301 1524 301 1428.8 301C1333.7 301 1238.3 301 1143 301C1047.7 301 952.3 301 857 301C761.7 301 666.3 301 571.2 301C476 301 381 301 285.8 301C190.7 301 95.3 301 47.7 301L0 301Z" fill="#f8fbff"></path><path d="M0 251L47.7 246.7C95.3 242.3 190.7 233.7 285.8 230C381 226.3 476 227.7 571.2 230C666.3 232.3 761.7 235.7 857 235.2C952.3 234.7 1047.7 230.3 1143 228.7C1238.3 227 1333.7 228 1428.8 227.3C1524 226.7 1619 224.3 1714.2 228.3C1809.3 232.3 1904.7 242.7 1952.3 247.8L2000 253L2000 301L1952.3 301C1904.7 301 1809.3 301 1714.2 301C1619 301 1524 301 1428.8 301C1333.7 301 1238.3 301 1143 301C1047.7 301 952.3 301 857 301C761.7 301 666.3 301 571.2 301C476 301 381 301 285.8 301C190.7 301 95.3 301 47.7 301L0 301Z" fill="#f4faff"></path><path d="M0 264L47.7 264.7C95.3 265.3 190.7 266.7 285.8 263.7C381 260.7 476 253.3 571.2 252C666.3 250.7 761.7 255.3 857 257C952.3 258.7 1047.7 257.3 1143 258.8C1238.3 260.3 1333.7 264.7 1428.8 262.5C1524 260.3 1619 251.7 1714.2 248.8C1809.3 246 1904.7 249 1952.3 250.5L2000 252L2000 301L1952.3 301C1904.7 301 1809.3 301 1714.2 301C1619 301 1524 301 1428.8 301C1333.7 301 1238.3 301 1143 301C1047.7 301 952.3 301 857 301C761.7 301 666.3 301 571.2 301C476 301 381 301 285.8 301C190.7 301 95.3 301 47.7 301L0 301Z" fill="#f0f8ff"></path><path d="M0 280L47.7 278.8C95.3 277.7 190.7 275.3 285.8 272.5C381 269.7 476 266.3 571.2 266.5C666.3 266.7 761.7 270.3 857 273.5C952.3 276.7 1047.7 279.3 1143 278.8C1238.3 278.3 1333.7 274.7 1428.8 271.7C1524 268.7 1619 266.3 1714.2 265.5C1809.3 264.7 1904.7 265.3 1952.3 265.7L2000 266L2000 301L1952.3 301C1904.7 301 1809.3 301 1714.2 301C1619 301 1524 301 1428.8 301C1333.7 301 1238.3 301 1143 301C1047.7 301 952.3 301 857 301C761.7 301 666.3 301 571.2 301C476 301 381 301 285.8 301C190.7 301 95.3 301 47.7 301L0 301Z" fill="#edf6ff"></path></svg>