<svg id="visual" viewBox="0 0 2000 675" width="2000" height="675" xmlns="http://www.w3.org/2000/svg" xmlns:xlink="http://www.w3.org/1999/xlink" version="1.1"><path d="M0 224L30.3 218.3C60.7 212.7 121.3 201.3 182 209.2C242.7 217 303.3 244 363.8 235C424.3 226 484.7 181 545.2 177.7C605.7 174.3 666.3 212.7 727 220.5C787.7 228.3 848.3 205.7 909 202.3C969.7 199 1030.3 215 1091 230.8C1151.7 246.7 1212.3 262.3 1273 258.8C1333.7 255.3 1394.3 232.7 1454.8 232.7C1515.3 232.7 1575.7 255.3 1636.2 240.8C1696.7 226.3 1757.3 174.7 1818 153.3C1878.7 132 1939.3 141 1969.7 145.5L2000 150L2000 0L1969.7 0C1939.3 0 1878.7 0 1818 0C1757.3 0 1696.7 0 1636.2 0C1575.7 0 1515.3 0 1454.8 0C1394.3 0 1333.7 0 1273 0C1212.3 0 1151.7 0 1091 0C1030.3 0 969.7 0 909 0C848.3 0 787.7 0 727 0C666.3 0 605.7 0 545.2 0C484.7 0 424.3 0 363.8 0C303.3 0 242.7 0 182 0C121.3 0 60.7 0 30.3 0L0 0Z" fill="#f3f9ff"></path><path d="M0 298L30.3 305.8C60.7 313.7 121.3 329.3 182 339.5C242.7 349.7 303.3 354.3 363.8 351C424.3 347.7 484.7 336.3 545.2 335.2C605.7 334 666.3 343 727 344.2C787.7 345.3 848.3 338.7 909 334.2C969.7 329.7 1030.3 327.3 1091 334C1151.7 340.7 1212.3 356.3 1273 359.7C1333.7 363 1394.3 354 1454.8 355.2C1515.3 356.3 1575.7 367.7 1636.2 346.3C1696.7 325 1757.3 271 1818 254.2C1878.7 237.3 1939.3 257.7 1969.7 267.8L2000 278L2000 148L1969.7 143.5C1939.3 139 1878.7 130 1818 151.3C1757.3 172.7 1696.7 224.3 1636.2 238.8C1575.7 253.3 1515.3 230.7 1454.8 230.7C1394.3 230.7 1333.7 253.3 1273 256.8C1212.3 260.3 1151.7 244.7 1091 228.8C1030.3 213 969.7 197 909 200.3C848.3 203.7 787.7 226.3 727 218.5C666.3 210.7 605.7 172.3 545.2 175.7C484.7 179 424.3 224 363.8 233C303.3 242 242.7 215 182 207.2C121.3 199.3 60.7 210.7 30.3 216.3L0 222Z" fill="#f0f8ff"></path><path d="M0 339L30.3 358C60.7 377 121.3 415 182 434C242.7 453 303.3 453 363.8 446.3C424.3 439.7 484.7 426.3 545.2 426.3C605.7 426.3 666.3 439.7 727 434C787.7 428.3 848.3 403.7 909 390.2C969.7 376.7 1030.3 374.3 1091 387.8C1151.7 401.3 1212.3 430.7 1273 443.2C1333.7 455.7 1394.3 451.3 1454.8 446.8C1515.3 442.3 1575.7 437.7 1636.2 407.2C1696.7 376.7 1757.3 320.3 1818 313.7C1878.7 307 1939.3 350 1969.7 371.5L2000 393L2000 276L1969.7 265.8C1939.3 255.7 1878.7 235.3 1818 252.2C1757.3 269 1696.7 323 1636.2 344.3C1575.7 365.7 1515.3 354.3 1454.8 353.2C1394.3 352 1333.7 361 1273 357.7C1212.3 354.3 1151.7 338.7 1091 332C1030.3 325.3 969.7 327.7 909 332.2C848.3 336.7 787.7 343.3 727 342.2C666.3 341 605.7 332 545.2 333.2C484.7 334.3 424.3 345.7 363.8 349C303.3 352.3 242.7 347.7 182 337.5C121.3 327.3 60.7 311.7 30.3 303.8L0 296Z" fill="#edf6ff"></path><path d="M0 447L30.3 466C60.7 485 121.3 523 182 535.3C242.7 547.7 303.3 534.3 363.8 518.7C424.3 503 484.7 485 545.2 483.8C605.7 482.7 666.3 498.3 727 493.8C787.7 489.3 848.3 464.7 909 461.3C969.7 458 1030.3 476 1091 491.7C1151.7 507.3 1212.3 520.7 1273 521.8C1333.7 523 1394.3 512 1454.8 504.2C1515.3 496.3 1575.7 491.7 1636.2 472.5C1696.7 453.3 1757.3 419.7 1818 419.7C1878.7 419.7 1939.3 453.3 1969.7 470.2L2000 487L2000 391L1969.7 369.5C1939.3 348 1878.7 305 1818 311.7C1757.3 318.3 1696.7 374.7 1636.2 405.2C1575.7 435.7 1515.3 440.3 1454.8 444.8C1394.3 449.3 1333.7 453.7 1273 441.2C1212.3 428.7 1151.7 399.3 1091 385.8C1030.3 372.3 969.7 374.7 909 388.2C848.3 401.7 787.7 426.3 727 432C666.3 437.7 605.7 424.3 545.2 424.3C484.7 424.3 424.3 437.7 363.8 444.3C303.3 451 242.7 451 182 432C121.3 413 60.7 375 30.3 356L0 337Z" fill="#ddeeff"></path><path d="M0 676L30.3 676C60.7 676 121.3 676 182 676C242.7 676 303.3 676 363.8 676C424.3 676 484.7 676 545.2 676C605.7 676 666.3 676 727 676C787.7 676 848.3 676 909 676C969.7 676 1030.3 676 1091 676C1151.7 676 1212.3 676 1273 676C1333.7 676 1394.3 676 1454.8 676C1515.3 676 1575.7 676 1636.2 676C1696.7 676 1757.3 676 1818 676C1878.7 676 1939.3 676 1969.7 676L2000 676L2000 485L1969.7 468.2C1939.3 451.3 1878.7 417.7 1818 417.7C1757.3 417.7 1696.7 451.3 1636.2 470.5C1575.7 489.7 1515.3 494.3 1454.8 502.2C1394.3 510 1333.7 521 1273 519.8C1212.3 518.7 1151.7 505.3 1091 489.7C1030.3 474 969.7 456 909 459.3C848.3 462.7 787.7 487.3 727 491.8C666.3 496.3 605.7 480.7 545.2 481.8C484.7 483 424.3 501 363.8 516.7C303.3 532.3 242.7 545.7 182 533.3C121.3 521 60.7 483 30.3 464L0 445Z" fill="#cde6ff"></path></svg>