<svg id="visual" viewBox="0 0 1440 320" width="1440" height="320" xmlns="http://www.w3.org/2000/svg" xmlns:xlink="http://www.w3.org/1999/xlink" version="1.1"><path d="M0 30L21.8 26.8C43.7 23.7 87.3 17.3 131 18.3C174.7 19.3 218.3 27.7 262 27C305.7 26.3 349.3 16.7 393 13C436.7 9.3 480.3 11.7 524 12.3C567.7 13 611.3 12 654.8 14.7C698.3 17.3 741.7 23.7 785.2 26.3C828.7 29 872.3 28 916 26.3C959.7 24.7 1003.3 22.3 1047 21.7C1090.7 21 1134.3 22 1178 23.2C1221.7 24.3 1265.3 25.7 1309 25.2C1352.7 24.7 1396.3 22.3 1418.2 21.2L1440 20L1440 0L1418.2 0C1396.3 0 1352.7 0 1309 0C1265.3 0 1221.7 0 1178 0C1134.3 0 1090.7 0 1047 0C1003.3 0 959.7 0 916 0C872.3 0 828.7 0 785.2 0C741.7 0 698.3 0 654.8 0C611.3 0 567.7 0 524 0C480.3 0 436.7 0 393 0C349.3 0 305.7 0 262 0C218.3 0 174.7 0 131 0C87.3 0 43.7 0 21.8 0L0 0Z" fill="#f3f9ff"></path><path d="M0 87L21.8 80.7C43.7 74.3 87.3 61.7 131 58.5C174.7 55.3 218.3 61.7 262 55.8C305.7 50 349.3 32 393 24C436.7 16 480.3 18 524 21.2C567.7 24.3 611.3 28.7 654.8 38.8C698.3 49 741.7 65 785.2 64C828.7 63 872.3 45 916 40.7C959.7 36.3 1003.3 45.7 1047 53.7C1090.7 61.7 1134.3 68.3 1178 70C1221.7 71.7 1265.3 68.3 1309 59.7C1352.7 51 1396.3 37 1418.2 30L1440 23L1440 18L1418.2 19.2C1396.3 20.3 1352.7 22.7 1309 23.2C1265.3 23.7 1221.7 22.3 1178 21.2C1134.3 20 1090.7 19 1047 19.7C1003.3 20.3 959.7 22.7 916 24.3C872.3 26 828.7 27 785.2 24.3C741.7 21.7 698.3 15.3 654.8 12.7C611.3 10 567.7 11 524 10.3C480.3 9.7 436.7 7.3 393 11C349.3 14.7 305.7 24.3 262 25C218.3 25.7 174.7 17.3 131 16.3C87.3 15.3 43.7 21.7 21.8 24.8L0 28Z" fill="#f1f8ff"></path><path d="M0 107L21.8 103.2C43.7 99.3 87.3 91.7 131 86.8C174.7 82 218.3 80 262 76.8C305.7 73.7 349.3 69.3 393 62.3C436.7 55.3 480.3 45.7 524 43.5C567.7 41.3 611.3 46.7 654.8 61.2C698.3 75.7 741.7 99.3 785.2 101C828.7 102.7 872.3 82.3 916 79C959.7 75.7 1003.3 89.3 1047 92.5C1090.7 95.7 1134.3 88.3 1178 87.3C1221.7 86.3 1265.3 91.7 1309 87.3C1352.7 83 1396.3 69 1418.2 62L1440 55L1440 21L1418.2 28C1396.3 35 1352.7 49 1309 57.7C1265.3 66.3 1221.7 69.7 1178 68C1134.3 66.3 1090.7 59.7 1047 51.7C1003.3 43.7 959.7 34.3 916 38.7C872.3 43 828.7 61 785.2 62C741.7 63 698.3 47 654.8 36.8C611.3 26.7 567.7 22.3 524 19.2C480.3 16 436.7 14 393 22C349.3 30 305.7 48 262 53.8C218.3 59.7 174.7 53.3 131 56.5C87.3 59.7 43.7 72.3 21.8 78.7L0 85Z" fill="#f0f7ff"></path><path d="M0 119L21.8 117.5C43.7 116 87.3 113 131 106.7C174.7 100.3 218.3 90.7 262 84.2C305.7 77.7 349.3 74.3 393 69.5C436.7 64.7 480.3 58.3 524 63.2C567.7 68 611.3 84 654.8 99.5C698.3 115 741.7 130 785.2 131.2C828.7 132.3 872.3 119.7 916 116.5C959.7 113.3 1003.3 119.7 1047 122.8C1090.7 126 1134.3 126 1178 126C1221.7 126 1265.3 126 1309 120.2C1352.7 114.3 1396.3 102.7 1418.2 96.8L1440 91L1440 53L1418.2 60C1396.3 67 1352.7 81 1309 85.3C1265.3 89.7 1221.7 84.3 1178 85.3C1134.3 86.3 1090.7 93.7 1047 90.5C1003.3 87.3 959.7 73.7 916 77C872.3 80.3 828.7 100.7 785.2 99C741.7 97.3 698.3 73.7 654.8 59.2C611.3 44.7 567.7 39.3 524 41.5C480.3 43.7 436.7 53.3 393 60.3C349.3 67.3 305.7 71.7 262 74.8C218.3 78 174.7 80 131 84.8C87.3 89.7 43.7 97.3 21.8 101.2L0 105Z" fill="#eef6ff"></path><path d="M0 199L21.8 206C43.7 213 87.3 227 131 236.7C174.7 246.3 218.3 251.7 262 250C305.7 248.3 349.3 239.7 393 207.7C436.7 175.7 480.3 120.3 524 100.2C567.7 80 611.3 95 654.8 116.8C698.3 138.7 741.7 167.3 785.2 183.3C828.7 199.3 872.3 202.7 916 200.5C959.7 198.3 1003.3 190.7 1047 180C1090.7 169.3 1134.3 155.7 1178 156.8C1221.7 158 1265.3 174 1309 182C1352.7 190 1396.3 190 1418.2 190L1440 190L1440 89L1418.2 94.8C1396.3 100.7 1352.7 112.3 1309 118.2C1265.3 124 1221.7 124 1178 124C1134.3 124 1090.7 124 1047 120.8C1003.3 117.7 959.7 111.3 916 114.5C872.3 117.7 828.7 130.3 785.2 129.2C741.7 128 698.3 113 654.8 97.5C611.3 82 567.7 66 524 61.2C480.3 56.3 436.7 62.7 393 67.5C349.3 72.3 305.7 75.7 262 82.2C218.3 88.7 174.7 98.3 131 104.7C87.3 111 43.7 114 21.8 115.5L0 117Z" fill="#e8f4ff"></path><path d="M0 203L21.8 217.8C43.7 232.7 87.3 262.3 131 271.8C174.7 281.3 218.3 270.7 262 270.2C305.7 269.7 349.3 279.3 393 254.3C436.7 229.3 480.3 169.7 524 140.8C567.7 112 611.3 114 654.8 134.8C698.3 155.7 741.7 195.3 785.2 214C828.7 232.7 872.3 230.3 916 226C959.7 221.7 1003.3 215.3 1047 208.5C1090.7 201.7 1134.3 194.3 1178 197C1221.7 199.7 1265.3 212.3 1309 218.7C1352.7 225 1396.3 225 1418.2 225L1440 225L1440 188L1418.2 188C1396.3 188 1352.7 188 1309 180C1265.3 172 1221.7 156 1178 154.8C1134.3 153.7 1090.7 167.3 1047 178C1003.3 188.7 959.7 196.3 916 198.5C872.3 200.7 828.7 197.3 785.2 181.3C741.7 165.3 698.3 136.7 654.8 114.8C611.3 93 567.7 78 524 98.2C480.3 118.3 436.7 173.7 393 205.7C349.3 237.7 305.7 246.3 262 248C218.3 249.7 174.7 244.3 131 234.7C87.3 225 43.7 211 21.8 204L0 197Z" fill="#dfefff"></path><path d="M0 260L21.8 267.5C43.7 275 87.3 290 131 291.7C174.7 293.3 218.3 281.7 262 279C305.7 276.3 349.3 282.7 393 273C436.7 263.3 480.3 237.7 524 229.2C567.7 220.7 611.3 229.3 654.8 242.7C698.3 256 741.7 274 785.2 272.8C828.7 271.7 872.3 251.3 916 246.5C959.7 241.7 1003.3 252.3 1047 261C1090.7 269.7 1134.3 276.3 1178 281.7C1221.7 287 1265.3 291 1309 293C1352.7 295 1396.3 295 1418.2 295L1440 295L1440 223L1418.2 223C1396.3 223 1352.7 223 1309 216.7C1265.3 210.3 1221.7 197.7 1178 195C1134.3 192.3 1090.7 199.7 1047 206.5C1003.3 213.3 959.7 219.7 916 224C872.3 228.3 828.7 230.7 785.2 212C741.7 193.3 698.3 153.7 654.8 132.8C611.3 112 567.7 110 524 138.8C480.3 167.7 436.7 227.3 393 252.3C349.3 277.3 305.7 267.7 262 268.2C218.3 268.7 174.7 279.3 131 269.8C87.3 260.3 43.7 230.7 21.8 215.8L0 201Z" fill="#d6ebff"></path><path d="M0 321L21.8 321C43.7 321 87.3 321 131 321C174.7 321 218.3 321 262 321C305.7 321 349.3 321 393 321C436.7 321 480.3 321 524 321C567.7 321 611.3 321 654.8 321C698.3 321 741.7 321 785.2 321C828.7 321 872.3 321 916 321C959.7 321 1003.3 321 1047 321C1090.7 321 1134.3 321 1178 321C1221.7 321 1265.3 321 1309 321C1352.7 321 1396.3 321 1418.2 321L1440 321L1440 293L1418.2 293C1396.3 293 1352.7 293 1309 291C1265.3 289 1221.7 285 1178 279.7C1134.3 274.3 1090.7 267.7 1047 259C1003.3 250.3 959.7 239.7 916 244.5C872.3 249.3 828.7 269.7 785.2 270.8C741.7 272 698.3 254 654.8 240.7C611.3 227.3 567.7 218.7 524 227.2C480.3 235.7 436.7 261.3 393 271C349.3 280.7 305.7 274.3 262 277C218.3 279.7 174.7 291.3 131 289.7C87.3 288 43.7 273 21.8 265.5L0 258Z" fill="#cde6ff"></path></svg>