<svg id="visual" viewBox="0 0 2000 675" width="2000" height="675" xmlns="http://www.w3.org/2000/svg" xmlns:xlink="http://www.w3.org/1999/xlink" version="1.1"><path d="M0 96L30.3 98.2C60.7 100.3 121.3 104.7 182 97.8C242.7 91 303.3 73 363.8 74.2C424.3 75.3 484.7 95.7 545.2 99C605.7 102.3 666.3 88.7 727 94.3C787.7 100 848.3 125 909 128.5C969.7 132 1030.3 114 1091 97C1151.7 80 1212.3 64 1273 68.5C1333.7 73 1394.3 98 1454.8 115C1515.3 132 1575.7 141 1636.2 133C1696.7 125 1757.3 100 1818 93.2C1878.7 86.3 1939.3 97.7 1969.7 103.3L2000 109L2000 0L1969.7 0C1939.3 0 1878.7 0 1818 0C1757.3 0 1696.7 0 1636.2 0C1575.7 0 1515.3 0 1454.8 0C1394.3 0 1333.7 0 1273 0C1212.3 0 1151.7 0 1091 0C1030.3 0 969.7 0 909 0C848.3 0 787.7 0 727 0C666.3 0 605.7 0 545.2 0C484.7 0 424.3 0 363.8 0C303.3 0 242.7 0 182 0C121.3 0 60.7 0 30.3 0L0 0Z" fill="#f8fcff"></path><path d="M0 237L30.3 240.5C60.7 244 121.3 251 182 257.8C242.7 264.7 303.3 271.3 363.8 266.8C424.3 262.3 484.7 246.7 545.2 255.7C605.7 264.7 666.3 298.3 727 316.3C787.7 334.3 848.3 336.7 909 325.3C969.7 314 1030.3 289 1091 277.7C1151.7 266.3 1212.3 268.7 1273 269.8C1333.7 271 1394.3 271 1454.8 265.3C1515.3 259.7 1575.7 248.3 1636.2 249.5C1696.7 250.7 1757.3 264.3 1818 268.8C1878.7 273.3 1939.3 268.7 1969.7 266.3L2000 264L2000 107L1969.7 101.3C1939.3 95.7 1878.7 84.3 1818 91.2C1757.3 98 1696.7 123 1636.2 131C1575.7 139 1515.3 130 1454.8 113C1394.3 96 1333.7 71 1273 66.5C1212.3 62 1151.7 78 1091 95C1030.3 112 969.7 130 909 126.5C848.3 123 787.7 98 727 92.3C666.3 86.7 605.7 100.3 545.2 97C484.7 93.7 424.3 73.3 363.8 72.2C303.3 71 242.7 89 182 95.8C121.3 102.7 60.7 98.3 30.3 96.2L0 94Z" fill="#f6fbff"></path><path d="M0 339L30.3 344.5C60.7 350 121.3 361 182 362C242.7 363 303.3 354 363.8 344C424.3 334 484.7 323 545.2 334.3C605.7 345.7 666.3 379.3 727 392.8C787.7 406.3 848.3 399.7 909 383.8C969.7 368 1030.3 343 1091 339.5C1151.7 336 1212.3 354 1273 360.8C1333.7 367.7 1394.3 363.3 1454.8 349.8C1515.3 336.3 1575.7 313.7 1636.2 306.8C1696.7 300 1757.3 309 1818 323.7C1878.7 338.3 1939.3 358.7 1969.7 368.8L2000 379L2000 262L1969.7 264.3C1939.3 266.7 1878.7 271.3 1818 266.8C1757.3 262.3 1696.7 248.7 1636.2 247.5C1575.7 246.3 1515.3 257.7 1454.8 263.3C1394.3 269 1333.7 269 1273 267.8C1212.3 266.7 1151.7 264.3 1091 275.7C1030.3 287 969.7 312 909 323.3C848.3 334.7 787.7 332.3 727 314.3C666.3 296.3 605.7 262.7 545.2 253.7C484.7 244.7 424.3 260.3 363.8 264.8C303.3 269.3 242.7 262.7 182 255.8C121.3 249 60.7 242 30.3 238.5L0 235Z" fill="#f5faff"></path><path d="M0 534L30.3 530.7C60.7 527.3 121.3 520.7 182 527.5C242.7 534.3 303.3 554.7 363.8 561.5C424.3 568.3 484.7 561.7 545.2 549.3C605.7 537 666.3 519 727 511C787.7 503 848.3 505 909 505C969.7 505 1030.3 503 1091 511C1151.7 519 1212.3 537 1273 543.7C1333.7 550.3 1394.3 545.7 1454.8 541.2C1515.3 536.7 1575.7 532.3 1636.2 526.7C1696.7 521 1757.3 514 1818 512.8C1878.7 511.7 1939.3 516.3 1969.7 518.7L2000 521L2000 377L1969.7 366.8C1939.3 356.7 1878.7 336.3 1818 321.7C1757.3 307 1696.7 298 1636.2 304.8C1575.7 311.7 1515.3 334.3 1454.8 347.8C1394.3 361.3 1333.7 365.7 1273 358.8C1212.3 352 1151.7 334 1091 337.5C1030.3 341 969.7 366 909 381.8C848.3 397.7 787.7 404.3 727 390.8C666.3 377.3 605.7 343.7 545.2 332.3C484.7 321 424.3 332 363.8 342C303.3 352 242.7 361 182 360C121.3 359 60.7 348 30.3 342.5L0 337Z" fill="#e5f2ff"></path><path d="M0 676L30.3 676C60.7 676 121.3 676 182 676C242.7 676 303.3 676 363.8 676C424.3 676 484.7 676 545.2 676C605.7 676 666.3 676 727 676C787.7 676 848.3 676 909 676C969.7 676 1030.3 676 1091 676C1151.7 676 1212.3 676 1273 676C1333.7 676 1394.3 676 1454.8 676C1515.3 676 1575.7 676 1636.2 676C1696.7 676 1757.3 676 1818 676C1878.7 676 1939.3 676 1969.7 676L2000 676L2000 519L1969.7 516.7C1939.3 514.3 1878.7 509.7 1818 510.8C1757.3 512 1696.7 519 1636.2 524.7C1575.7 530.3 1515.3 534.7 1454.8 539.2C1394.3 543.7 1333.7 548.3 1273 541.7C1212.3 535 1151.7 517 1091 509C1030.3 501 969.7 503 909 503C848.3 503 787.7 501 727 509C666.3 517 605.7 535 545.2 547.3C484.7 559.7 424.3 566.3 363.8 559.5C303.3 552.7 242.7 532.3 182 525.5C121.3 518.7 60.7 525.3 30.3 528.7L0 532Z" fill="#d4eaff"></path></svg>