<svg xmlns="http://www.w3.org/2000/svg" xmlns:xlink="http://www.w3.org/1999/xlink" width="1440" zoomAndPan="magnify" viewBox="0 0 1080 239.999995" height="320" preserveAspectRatio="xMidYMid meet" version="1.0"><path fill="#f5faff" d="M 0 48 L 25.726562 48 C 51.449219 48 102.75 48 154.5 68.023438 C 205.726562 87.75 257.25 128.25 308.25 128.023438 C 360 128.25 411.75 87.75 462.75 80.023438 C 514.273438 72 565.5 96 617.25 108 C 668.550781 120 720 120 771.75 120 C 822.824219 120 874.5 120 925.5 116.023438 C 977.175781 111.75 1028.25 104.25 1054.5 99.976562 L 1080 96 L 1080 240 L 1054.273438 240 C 1028.550781 240 977.25 240 925.5 240 C 874.273438 240 822.75 240 771.75 240 C 720 240 668.25 240 617.25 240 C 565.726562 240 514.5 240 462.75 240 C 411.449219 240 360 240 308.25 240 C 257.175781 240 205.5 240 154.5 240 C 102.824219 240 51.75 240 25.5 240 L 0 240 Z M 0 48 " fill-opacity="1" fill-rule="nonzero"/></svg>