<svg id="visual" viewBox="0 0 1440 320" width="1440" height="320" xmlns="http://www.w3.org/2000/svg" xmlns:xlink="http://www.w3.org/1999/xlink" version="1.1"><path d="M0 20L17.2 28C34.3 36 68.7 52 103 62.3C137.3 72.7 171.7 77.3 206 89.2C240.3 101 274.7 120 308.8 121.3C343 122.7 377 106.3 411.2 99.5C445.3 92.7 479.7 95.3 514 94.2C548.3 93 582.7 88 617 97.8C651.3 107.7 685.7 132.3 720 139.7C754.3 147 788.7 137 823 139C857.3 141 891.7 155 926 148.7C960.3 142.3 994.7 115.7 1028.8 95C1063 74.3 1097 59.7 1131.2 56C1165.3 52.3 1199.7 59.7 1234 75.8C1268.3 92 1302.7 117 1337 110.8C1371.3 104.7 1405.7 67.3 1422.8 48.7L1440 30" fill="none" stroke-linecap="round" stroke-linejoin="miter" stroke="#EDF6FF" stroke-width="41"></path></svg>