<svg id="visual" viewBox="0 0 1440 320" width="1440" height="320" xmlns="http://www.w3.org/2000/svg" xmlns:xlink="http://www.w3.org/1999/xlink" version="1.1"><path d="M0 260L17.2 249.7C34.3 239.3 68.7 218.7 103 210C137.3 201.3 171.7 204.7 206 213.3C240.3 222 274.7 236 308.8 246.8C343 257.7 377 265.3 411.2 258.5C445.3 251.7 479.7 230.3 514 216.3C548.3 202.3 582.7 195.7 617 196.5C651.3 197.3 685.7 205.7 720 213.2C754.3 220.7 788.7 227.3 823 237.5C857.3 247.7 891.7 261.3 926 250.8C960.3 240.3 994.7 205.7 1028.8 190.5C1063 175.3 1097 179.7 1131.2 183.2C1165.3 186.7 1199.7 189.3 1234 195.7C1268.3 202 1302.7 212 1337 215.3C1371.3 218.7 1405.7 215.3 1422.8 213.7L1440 212L1440 321L1422.8 321C1405.7 321 1371.3 321 1337 321C1302.7 321 1268.3 321 1234 321C1199.7 321 1165.3 321 1131.2 321C1097 321 1063 321 1028.8 321C994.7 321 960.3 321 926 321C891.7 321 857.3 321 823 321C788.7 321 754.3 321 720 321C685.7 321 651.3 321 617 321C582.7 321 548.3 321 514 321C479.7 321 445.3 321 411.2 321C377 321 343 321 308.8 321C274.7 321 240.3 321 206 321C171.7 321 137.3 321 103 321C68.7 321 34.3 321 17.2 321L0 321Z" fill="#EDF6FF" stroke-linecap="round" stroke-linejoin="miter"></path></svg>