<svg width="1437" height="592" viewBox="0 0 1437 592" fill="none" xmlns="http://www.w3.org/2000/svg">
<path fill-rule="evenodd" clip-rule="evenodd" d="M0 29.5555L35.1142 34.4814C69.0175 39.4074 138.035 49.2593 207.052 44.3334C277.281 39.4074 346.298 19.7037 415.316 49.2593C484.333 78.8148 553.351 157.63 622.368 172.407C691.386 187.185 761.614 137.926 830.632 103.444C899.649 68.963 968.667 49.2593 1037.68 64.0371C1106.7 78.8149 1175.72 128.074 1245.95 123.148C1314.97 118.222 1383.98 59.1111 1417.89 29.5555L1453 0V591.5H1417.89C1383.98 591.5 1314.97 591.5 1245.95 591.5C1175.72 591.5 1106.7 591.5 1037.68 591.5C968.667 591.5 899.649 591.5 830.632 591.5C761.614 591.5 691.386 591.5 622.368 591.5C553.351 591.5 484.333 591.5 415.316 591.5C346.298 591.5 277.281 591.5 207.052 591.5C138.035 591.5 69.0175 591.5 35.1142 591.5H0L0 29.5555Z" fill="url(#paint0_linear_1_1714)" fill-opacity="0.5"/>
<defs>
<linearGradient id="paint0_linear_1_1714" x1="592.5" y1="56.5" x2="586" y2="442" gradientUnits="userSpaceOnUse">
<stop offset="0.395278" stop-color="white"/>
<stop offset="1" stop-color="white" stop-opacity="0"/>
</linearGradient>
</defs>
</svg>
